<svg width="166" height="36" viewBox="0 0 166 36" fill="none" xmlns="http://www.w3.org/2000/svg">
<g clip-path="url(#clip0_1_2838)">
<path d="M5.25544 22.5193C4.90312 22.2111 4.35996 22.2551 4.05168 22.6221C3.7434 22.9744 3.78744 23.5176 4.15444 23.8259L11.2743 29.8447V33.3532C8.39697 33.1477 5.82796 31.9293 4.12508 29.9328C-1.54944e-05 25.1324 1.92307 18.2328 4.24252 13.3003C5.4316 10.7753 7.48681 7.86865 9.30714 5.5492C9.60074 5.1822 9.52734 4.63904 9.16034 4.36012C8.79333 4.06652 8.25017 4.13992 7.97125 4.50692C6.0922 6.88509 3.9636 9.90918 2.70111 12.5809C-0.954219 20.3173 -0.910178 26.7032 2.81855 31.0485C4.9912 33.5881 8.35293 35.0561 12.0229 35.1001C12.0229 35.1001 12.0229 35.1001 12.0376 35.1001C12.4487 35.1001 12.9771 34.7185 12.9771 34.1753V29.4483C12.9771 29.1988 12.8597 28.9639 12.6689 28.8024L5.25544 22.5193Z" fill="#111111"/>
<path d="M18.262 17.161L12.1257 22.1229L5.96007 17.0289C5.59306 16.7353 5.06458 16.7793 4.7563 17.1463C4.4627 17.5133 4.50674 18.0418 4.87374 18.3501C4.96182 18.4235 11.5385 23.8551 11.6412 23.9138C11.9642 24.1487 12.3899 24.1047 12.6689 23.8845L19.3336 18.4969C19.7006 18.2033 19.7593 17.6601 19.4657 17.2931C19.1721 16.9261 18.629 16.8674 18.262 17.161Z" fill="#111111"/>
<path d="M7.72169 12.4046C7.36937 12.0964 6.82621 12.1404 6.51793 12.4927C6.20964 12.845 6.25368 13.3882 6.60601 13.6965L8.64653 15.4581C8.99885 15.7664 9.54202 15.7223 9.8503 15.37C10.1586 15.0177 10.1145 14.4745 9.76222 14.1662L7.72169 12.4046Z" fill="#111111"/>
<path d="M14.4892 27.7454C14.7828 28.1124 15.326 28.1711 15.693 27.8628L20.5667 23.8845C20.9337 23.5909 20.9925 23.0477 20.6842 22.6807C20.3906 22.3137 19.8474 22.255 19.4804 22.5633L14.6066 26.5416C14.2543 26.8499 14.1956 27.3784 14.4892 27.7454Z" fill="#111111"/>
<path d="M21.5503 12.5809C19.2455 7.69246 13.9754 1.74704 12.7863 0.308394C12.2578 -0.337528 11.2009 0.102874 11.2743 0.939636C11.2596 1.07176 11.2596 0.132234 11.2596 17.0877C11.2596 17.8951 12.1991 18.1593 12.7129 17.763L17.7628 13.77C18.1298 13.4764 18.1886 12.9479 17.9096 12.5809C17.616 12.2139 17.0876 12.1552 16.7206 12.4341L12.9771 15.3848V3.18568C15.0177 5.62257 18.3647 9.79171 20.0236 13.3149C22.3577 18.2621 24.2661 25.147 20.141 29.9474C18.8345 31.4741 17.4252 32.5458 15.326 33.0596C14.8709 33.177 14.592 33.6321 14.7094 34.0872C14.8268 34.5423 15.2819 34.8212 15.737 34.7038C18.1739 34.1019 19.8915 32.8394 21.4329 31.0484C25.1616 26.7031 25.2056 20.3173 21.5503 12.5809Z" fill="#111111"/>
</g>
<path d="M27.685 29L37.1 17.73L37.065 19.9L28.245 9.085H34.79L41.02 16.575H38.99L45.255 9.085H51.695L42.595 20.005L42.315 17.275L52.22 29H45.57L38.78 20.95H40.915L34.195 29H27.685ZM74.8762 22.735C74.8762 24.1583 74.4562 25.3833 73.6162 26.41C72.7995 27.4367 71.5745 28.2183 69.9412 28.755C68.3079 29.2683 66.3129 29.525 63.9562 29.525C61.5295 29.525 59.4179 29.2333 57.6212 28.65C55.8245 28.0433 54.4245 27.1917 53.4212 26.095C52.4179 24.9983 51.8812 23.7267 51.8112 22.28H57.7612C57.9012 22.9333 58.2512 23.505 58.8112 23.995C59.3712 24.4617 60.0945 24.8233 60.9812 25.08C61.8912 25.3367 62.9412 25.465 64.1312 25.465C65.7879 25.465 67.0362 25.2783 67.8762 24.905C68.7395 24.5317 69.1712 23.9717 69.1712 23.225C69.1712 22.6883 68.8679 22.28 68.2612 22C67.6779 21.72 66.5929 21.51 65.0062 21.37L61.2962 21.09C59.0795 20.9033 57.3179 20.53 56.0112 19.97C54.7045 19.41 53.7712 18.71 53.2112 17.87C52.6745 17.0067 52.4062 16.0617 52.4062 15.035C52.4062 13.6117 52.8495 12.4217 53.7362 11.465C54.6229 10.5083 55.8595 9.785 57.4462 9.295C59.0562 8.805 60.9112 8.56 63.0112 8.56C65.1579 8.56 67.0712 8.85167 68.7512 9.435C70.4312 10.0183 71.7729 10.8233 72.7762 11.85C73.8029 12.8767 74.3862 14.0667 74.5262 15.42H68.5762C68.4829 14.93 68.2145 14.475 67.7712 14.055C67.3512 13.6117 66.7329 13.25 65.9162 12.97C65.0995 12.69 64.0379 12.55 62.7312 12.55C61.2612 12.55 60.1295 12.725 59.3362 13.075C58.5429 13.4017 58.1462 13.9033 58.1462 14.58C58.1462 15.0467 58.3912 15.4317 58.8812 15.735C59.3712 16.015 60.2812 16.2133 61.6112 16.33L66.4412 16.715C68.5879 16.9017 70.2795 17.2633 71.5162 17.8C72.7529 18.3133 73.6162 18.99 74.1062 19.83C74.6195 20.67 74.8762 21.6383 74.8762 22.735ZM75.9582 13.495V10.905L80.1232 9.54L82.6082 3.835H85.9682V9.085H94.7882V13.495H85.9682V20.74C85.9682 22.28 86.2832 23.365 86.9132 23.995C87.5665 24.6017 88.6865 24.905 90.2732 24.905C91.2765 24.905 92.1632 24.8117 92.9332 24.625C93.7032 24.4383 94.4382 24.17 95.1382 23.82V28.37C94.4615 28.65 93.5632 28.9067 92.4432 29.14C91.3232 29.3967 90.1682 29.525 88.9782 29.525C86.9015 29.525 85.2099 29.1983 83.9032 28.545C82.6199 27.8683 81.6632 26.935 81.0332 25.745C80.4265 24.555 80.1232 23.1667 80.1232 21.58V13.495H75.9582ZM109.017 29.525C106.544 29.525 104.374 29.0933 102.507 28.23C100.641 27.3433 99.1823 26.1183 98.1323 24.555C97.0823 22.9683 96.5573 21.1367 96.5573 19.06C96.5573 16.96 97.0823 15.1283 98.1323 13.565C99.1823 11.9783 100.641 10.7533 102.507 9.89C104.374 9.00333 106.544 8.56 109.017 8.56C111.491 8.56 113.661 9.00333 115.527 9.89C117.394 10.7533 118.841 11.9783 119.867 13.565C120.917 15.1283 121.442 16.96 121.442 19.06C121.442 21.1367 120.917 22.9683 119.867 24.555C118.841 26.1183 117.394 27.3433 115.527 28.23C113.661 29.0933 111.491 29.525 109.017 29.525ZM109.017 25.08C110.371 25.08 111.526 24.835 112.482 24.345C113.462 23.855 114.209 23.1667 114.722 22.28C115.259 21.37 115.527 20.2967 115.527 19.06C115.527 17.8 115.259 16.7267 114.722 15.84C114.209 14.93 113.462 14.23 112.482 13.74C111.526 13.25 110.371 13.005 109.017 13.005C107.687 13.005 106.532 13.25 105.552 13.74C104.572 14.23 103.814 14.93 103.277 15.84C102.764 16.7267 102.507 17.8 102.507 19.06C102.507 20.2967 102.764 21.37 103.277 22.28C103.814 23.1667 104.572 23.855 105.552 24.345C106.532 24.835 107.687 25.08 109.017 25.08ZM123.835 9.085H129.75L130.94 16.26V29H125.095V15.63L123.835 9.085ZM140.635 8.875V13.915C140.029 13.775 139.422 13.67 138.815 13.6C138.209 13.53 137.637 13.495 137.1 13.495C135.934 13.495 134.884 13.74 133.95 14.23C133.017 14.72 132.282 15.4783 131.745 16.505C131.209 17.5317 130.94 18.8267 130.94 20.39L129.715 18.92C129.855 17.4967 130.112 16.1667 130.485 14.93C130.859 13.67 131.372 12.5733 132.025 11.64C132.702 10.6833 133.53 9.93667 134.51 9.4C135.49 8.84 136.657 8.56 138.01 8.56C138.454 8.56 138.897 8.595 139.34 8.665C139.807 8.71167 140.239 8.78166 140.635 8.875ZM153.925 29.525C151.569 29.525 149.457 29.0933 147.59 28.23C145.747 27.3433 144.289 26.1067 143.215 24.52C142.165 22.9333 141.64 21.09 141.64 18.99C141.64 16.9133 142.142 15.0933 143.145 13.53C144.172 11.9667 145.572 10.7533 147.345 9.89C149.119 9.00333 151.137 8.56 153.4 8.56C155.71 8.56 157.694 9.07333 159.35 10.1C161.007 11.1033 162.279 12.5267 163.165 14.37C164.075 16.2133 164.53 18.3833 164.53 20.88H146.33V16.995H161.38L159.105 18.395C159.012 17.2283 158.72 16.2367 158.23 15.42C157.764 14.6033 157.122 13.9733 156.305 13.53C155.489 13.0867 154.532 12.865 153.435 12.865C152.245 12.865 151.207 13.11 150.32 13.6C149.457 14.0667 148.78 14.7317 148.29 15.595C147.824 16.435 147.59 17.4267 147.59 18.57C147.59 19.9467 147.894 21.125 148.5 22.105C149.107 23.085 149.994 23.8317 151.16 24.345C152.327 24.8583 153.739 25.115 155.395 25.115C156.889 25.115 158.394 24.905 159.91 24.485C161.427 24.0417 162.792 23.4233 164.005 22.63V26.55C162.699 27.4833 161.17 28.2183 159.42 28.755C157.694 29.2683 155.862 29.525 153.925 29.525Z" fill="#111111"/>
<defs>
<clipPath id="clip0_1_2838">
<rect width="24.2661" height="35.1" fill="white"/>
</clipPath>
</defs>
</svg>
